<?xml version="1.0" encoding="UTF-8" standalone="no"?>
<svg
   xmlns:dc="http://purl.org/dc/elements/1.1/"
   xmlns:cc="http://creativecommons.org/ns#"
   xmlns:rdf="http://www.w3.org/1999/02/22-rdf-syntax-ns#"
   xmlns:svg="http://www.w3.org/2000/svg"
   xmlns="http://www.w3.org/2000/svg"
   xmlns:sodipodi="http://sodipodi.sourceforge.net/DTD/sodipodi-0.dtd"
   xmlns:inkscape="http://www.inkscape.org/namespaces/inkscape"
   version="1.1"
   id="svg2"
   xml:space="preserve"
   width="666.66669"
   height="666.66669"
   viewBox="0 0 666.66669 666.66669"
   sodipodi:docname="4936938.ai"><metadata
     id="metadata8"><rdf:RDF><cc:Work
         rdf:about=""><dc:format>image/svg+xml</dc:format><dc:type
           rdf:resource="http://purl.org/dc/dcmitype/StillImage" /></cc:Work></rdf:RDF></metadata><defs
     id="defs6"><clipPath
       clipPathUnits="userSpaceOnUse"
       id="clipPath32"><path
         d="M 0,500 H 500 V 0 H 0 Z"
         id="path30" /></clipPath><clipPath
       clipPathUnits="userSpaceOnUse"
       id="clipPath148"><path
         d="M 0,500 H 500 V 0 H 0 Z"
         id="path146" /></clipPath><clipPath
       clipPathUnits="userSpaceOnUse"
       id="clipPath160"><path
         d="M 56.665,449.445 H 459.561 V 153.589 H 56.665 Z"
         id="path158" /></clipPath><clipPath
       clipPathUnits="userSpaceOnUse"
       id="clipPath176"><path
         d="M 0,500 H 500 V 0 H 0 Z"
         id="path174" /></clipPath><clipPath
       clipPathUnits="userSpaceOnUse"
       id="clipPath188"><path
         d="M 0,500 H 500 V 0 H 0 Z"
         id="path186" /></clipPath><clipPath
       clipPathUnits="userSpaceOnUse"
       id="clipPath200"><path
         d="M 132.801,412.514 H 429.999 V 187.574 H 132.801 Z"
         id="path198" /></clipPath><clipPath
       clipPathUnits="userSpaceOnUse"
       id="clipPath230"><path
         d="m 163.884,353.943 h 17.049 v -25.084 h -17.049 z"
         id="path228" /></clipPath><clipPath
       clipPathUnits="userSpaceOnUse"
       id="clipPath246"><path
         d="m 187.907,357.711 h 17.234 v -28.852 h -17.234 z"
         id="path244" /></clipPath><clipPath
       clipPathUnits="userSpaceOnUse"
       id="clipPath262"><path
         d="m 211.931,360.302 h 17.361 v -31.443 h -17.361 z"
         id="path260" /></clipPath><clipPath
       clipPathUnits="userSpaceOnUse"
       id="clipPath278"><path
         d="M 235.955,362.657 H 253.43 V 328.859 H 235.955 Z"
         id="path276" /></clipPath><clipPath
       clipPathUnits="userSpaceOnUse"
       id="clipPath302"><path
         d="m 284.002,365.602 h 17.62 v -36.743 h -17.62 z"
         id="path300" /></clipPath><clipPath
       clipPathUnits="userSpaceOnUse"
       id="clipPath318"><path
         d="m 163.5,323.663 h 136.135 v -1.328 H 163.5 Z"
         id="path316" /></clipPath><clipPath
       clipPathUnits="userSpaceOnUse"
       id="clipPath334"><path
         d="m 308.541,383.35 h 10.004 V 204.785 h -10.004 z"
         id="path332" /></clipPath><clipPath
       clipPathUnits="userSpaceOnUse"
       id="clipPath354"><path
         d="m 373.869,374.76 h 26.098 v -19.816 h -26.098 z"
         id="path352" /></clipPath><clipPath
       clipPathUnits="userSpaceOnUse"
       id="clipPath378"><path
         d="m 367.131,301.079 h 30.844 v -37.814 h -30.844 z"
         id="path376" /></clipPath><clipPath
       clipPathUnits="userSpaceOnUse"
       id="clipPath414"><path
         d="m 384.836,220.587 h 10.419 v -10.165 h -10.419 z"
         id="path412" /></clipPath><clipPath
       clipPathUnits="userSpaceOnUse"
       id="clipPath442"><path
         d="M 160.216,309.54 H 299.094 V 258.29 H 160.216 Z"
         id="path440" /></clipPath><clipPath
       clipPathUnits="userSpaceOnUse"
       id="clipPath458"><path
         d="m 172.283,304.117 h 24.148 v -4.573 h -24.148 z"
         id="path456" /></clipPath><clipPath
       clipPathUnits="userSpaceOnUse"
       id="clipPath478"><path
         d="m 168.205,222.126 h 17.813 v -17.298 h -17.813 z"
         id="path476" /></clipPath><clipPath
       clipPathUnits="userSpaceOnUse"
       id="clipPath494"><path
         d="m 192.022,216.468 h 32.711 v -5.982 h -32.711 z"
         id="path492" /></clipPath><clipPath
       clipPathUnits="userSpaceOnUse"
       id="clipPath522"><path
         d="m 235.722,222.126 h 17.813 v -17.298 h -17.813 z"
         id="path520" /></clipPath><clipPath
       clipPathUnits="userSpaceOnUse"
       id="clipPath538"><path
         d="m 259.539,216.468 h 32.711 v -5.982 h -32.711 z"
         id="path536" /></clipPath><clipPath
       clipPathUnits="userSpaceOnUse"
       id="clipPath562"><path
         d="M 0,500 H 500 V 0 H 0 Z"
         id="path560" /></clipPath><clipPath
       clipPathUnits="userSpaceOnUse"
       id="clipPath594"><path
         d="m 116.695,285.247 h 26.172 V 110.954 h -26.172 z"
         id="path592" /></clipPath><clipPath
       clipPathUnits="userSpaceOnUse"
       id="clipPath618"><path
         d="m 126.597,118.104 h 12.861 v -12.692 h -12.861 z"
         id="path616" /></clipPath><clipPath
       clipPathUnits="userSpaceOnUse"
       id="clipPath646"><path
         d="m 116.75,100.372 h 15.413 V 93.8725 H 116.75 Z"
         id="path644" /></clipPath><clipPath
       clipPathUnits="userSpaceOnUse"
       id="clipPath686"><path
         d="m 128.049,355.824 h 6.934 v -8.305 h -6.934 z"
         id="path684" /></clipPath><clipPath
       clipPathUnits="userSpaceOnUse"
       id="clipPath706"><path
         d="m 126.706,385.905 h 13.723 v -16.417 h -13.723 z"
         id="path704" /></clipPath><clipPath
       clipPathUnits="userSpaceOnUse"
       id="clipPath782"><path
         d="M 0,500 H 500 V 0 H 0 Z"
         id="path780" /></clipPath><clipPath
       clipPathUnits="userSpaceOnUse"
       id="clipPath826"><path
         d="m 371.479,120.168 h 38.825 v -8.829 h -38.825 z"
         id="path824" /></clipPath></defs><sodipodi:namedview
     pagecolor="#ffffff"
     bordercolor="#666666"
     borderopacity="1"
     objecttolerance="10"
     gridtolerance="10"
     guidetolerance="10"
     inkscape:pageopacity="0"
     inkscape:pageshadow="2"
     inkscape:window-width="640"
     inkscape:window-height="480"
     id="namedview4" /><g
     id="g10"
     inkscape:groupmode="layer"
     inkscape:label="4936938"
     transform="matrix(1.3333333,0,0,-1.3333333,0,666.66667)"><path
       d="m 0,117.352 h 500 v 0.249 H 0 Z"
       style="fill:#ececec;fill-opacity:1;fill-rule:nonzero;stroke:none"
       id="path12" /><path
       d="m 52.459,107.828 h 33.122 v 0.25 H 52.459 Z"
       style="fill:#ececec;fill-opacity:1;fill-rule:nonzero;stroke:none"
       id="path14" /><path
       d="m 153.445,110.542 h 26.389 v 0.25 h -26.389 z"
       style="fill:#ececec;fill-opacity:1;fill-rule:nonzero;stroke:none"
       id="path16" /><path
       d="m 89.966,101.926 h 45.923 v 0.25 H 89.966 Z"
       style="fill:#ececec;fill-opacity:1;fill-rule:nonzero;stroke:none"
       id="path18" /><path
       d="m 428.305,100.223 h 21.596 v 0.249 h -21.596 z"
       style="fill:#ececec;fill-opacity:1;fill-rule:nonzero;stroke:none"
       id="path20" /><path
       d="m 391.471,100.223 h 31.973 v 0.249 h -31.973 z"
       style="fill:#ececec;fill-opacity:1;fill-rule:nonzero;stroke:none"
       id="path22" /><path
       d="m 277.214,104.444 h 55.12 v 0.25 h -55.12 z"
       style="fill:#ececec;fill-opacity:1;fill-rule:nonzero;stroke:none"
       id="path24" /><g
       id="g26"><g
         id="g28"
         clip-path="url(#clipPath32)"><g
           id="g34"
           transform="translate(43.915,444.7974)"><path
             d="m 0,0 c -3.01,0 -5.458,-2.448 -5.458,-5.458 v -271.431 c 0,-3.01 2.448,-5.458 5.458,-5.458 h 193.099 c 3.008,0 5.457,2.448 5.457,5.458 V -5.458 c 0,3.01 -2.449,5.458 -5.457,5.458 z M 193.099,-282.597 H 0 c -3.147,0 -5.708,2.56 -5.708,5.708 V -5.458 c 0,3.147 2.561,5.708 5.708,5.708 h 193.099 c 3.146,0 5.707,-2.561 5.707,-5.708 v -271.431 c 0,-3.148 -2.561,-5.708 -5.707,-5.708"
             style="fill:#ececec;fill-opacity:1;fill-rule:nonzero;stroke:none"
             id="path36" /></g><g
           id="g38"
           transform="translate(260.2119,444.7974)"><path
             d="m 0,0 c -3.009,0 -5.457,-2.448 -5.457,-5.458 v -271.431 c 0,-3.01 2.448,-5.458 5.457,-5.458 h 193.099 c 3.009,0 5.458,2.448 5.458,5.458 V -5.458 c 0,3.01 -2.449,5.458 -5.458,5.458 z M 193.099,-282.597 H 0 c -3.146,0 -5.707,2.56 -5.707,5.708 V -5.458 c 0,3.147 2.561,5.708 5.707,5.708 h 193.099 c 3.147,0 5.708,-2.561 5.708,-5.708 v -271.431 c 0,-3.148 -2.561,-5.708 -5.708,-5.708"
             style="fill:#ececec;fill-opacity:1;fill-rule:nonzero;stroke:none"
             id="path40" /></g><path
           d="M 70.37,280.154 H 340.93 V 430.779 H 70.37 Z"
           style="fill:#e1e1e1;fill-opacity:1;fill-rule:nonzero;stroke:none"
           id="path42" /><path
           d="M 55.513,280.154 H 339.565 V 430.779 H 55.513 Z"
           style="fill:#f5f5f5;fill-opacity:1;fill-rule:nonzero;stroke:none"
           id="path44" /><path
           d="M 60.154,426.139 H 334.923 V 284.795 H 60.154 Z"
           style="fill:#ffffff;fill-opacity:1;fill-rule:nonzero;stroke:none"
           id="path46" /><g
           id="g48"
           transform="translate(223.6708,284.7954)"><path
             d="M 0,0 -51.876,141.344 H 33.738 L 85.614,0 Z"
             style="fill:#f5f5f5;fill-opacity:1;fill-rule:nonzero;stroke:none"
             id="path50" /></g><g
           id="g52"
           transform="translate(141.2607,284.7954)"><path
             d="M 0,0 -51.876,141.344 H 12.708 L 64.584,0 Z"
             style="fill:#f5f5f5;fill-opacity:1;fill-rule:nonzero;stroke:none"
             id="path54" /></g><path
           d="m 432.494,122.273 h 15.402 v 103.634 h -15.402 z"
           style="fill:#f0f0f0;fill-opacity:1;fill-rule:nonzero;stroke:none"
           id="path56" /><path
           d="m 275.825,122.273 h 169.113 v -4.672 H 275.825 Z"
           style="fill:#f0f0f0;fill-opacity:1;fill-rule:nonzero;stroke:none"
           id="path58" /><path
           d="M 432.494,122.273 H 272.868 v 103.634 h 159.626 z"
           style="fill:#f5f5f5;fill-opacity:1;fill-rule:nonzero;stroke:none"
           id="path60" /><path
           d="m 434.092,229.984 h 15.742 v -4.077 h -15.742 z"
           style="fill:#f0f0f0;fill-opacity:1;fill-rule:nonzero;stroke:none"
           id="path62" /><path
           d="M 434.092,229.984 H 270.93 v -4.077 h 163.162 z"
           style="fill:#fafafa;fill-opacity:1;fill-rule:nonzero;stroke:none"
           id="path64" /><path
           d="m 279.554,178.047 h 146.255 v 38.156 H 279.554 Z m 147.514,-1.26 H 278.294 v 40.676 h 148.774 z"
           style="fill:#e1e1e1;fill-opacity:1;fill-rule:nonzero;stroke:none"
           id="path66" /><path
           d="m 279.554,131.979 h 146.255 v 37.592 H 279.554 Z m 147.514,-1.26 H 278.294 v 40.111 h 148.774 z"
           style="fill:#e1e1e1;fill-opacity:1;fill-rule:nonzero;stroke:none"
           id="path68" /><g
           id="g70"
           transform="translate(307.8033,209.3486)"><path
             d="m 0,0 h 89.755 c 0.912,0 1.658,0.746 1.658,1.657 0,0.912 -0.746,1.658 -1.658,1.658 H 0 C -0.912,3.315 -1.658,2.569 -1.658,1.657 -1.658,0.746 -0.912,0 0,0"
             style="fill:#e1e1e1;fill-opacity:1;fill-rule:nonzero;stroke:none"
             id="path72" /></g><g
           id="g74"
           transform="translate(307.8033,162.7148)"><path
             d="m 0,0 h 89.755 c 0.912,0 1.658,0.746 1.658,1.658 0,0.912 -0.746,1.658 -1.658,1.658 H 0 C -0.912,3.316 -1.658,2.57 -1.658,1.658 -1.658,0.746 -0.912,0 0,0"
             style="fill:#e1e1e1;fill-opacity:1;fill-rule:nonzero;stroke:none"
             id="path76" /></g><g
           id="g78"
           transform="translate(73.7181,176.7285)"><path
             d="m 0,0 h -10.369 l 1.739,9 c 0.928,4.84 5.176,8.358 10.104,8.358 H 1.51 L 14.672,17.315 13.009,10.37 C 11.574,4.376 6.085,0 0,0 M 67.888,65.155 H 42.044 c -9.201,0 -17.502,-6.617 -19.672,-15.681 L 15.545,20.963 1.518,21.009 H 1.474 c -6.687,0 -12.432,-4.752 -13.688,-11.322 l -1.869,-9.762 c -2.823,-0.406 -5.243,-2.562 -5.926,-5.416 h 69.328 c 9.193,0 17.486,6.61 19.654,15.667 l 9.803,40.94 c 1.755,7.33 -3.448,14.039 -10.888,14.039"
             style="fill:#e7e7e7;fill-opacity:1;fill-rule:nonzero;stroke:none"
             id="path80" /></g><g
           id="g82"
           transform="translate(121.2983,171.2373)"><path
             d="M 0,0 H 2.961 L 14.614,-53.636 H 11.653 Z"
             style="fill:#e1e1e1;fill-opacity:1;fill-rule:nonzero;stroke:none"
             id="path84" /></g><g
           id="g86"
           transform="translate(110.1871,171.2373)"><path
             d="M 0,0 H 2.961 L 14.614,-53.636 H 11.652 Z"
             style="fill:#e1e1e1;fill-opacity:1;fill-rule:nonzero;stroke:none"
             id="path88" /></g><g
           id="g90"
           transform="translate(66.5833,171.2373)"><path
             d="m 0,0 h -2.961 l -11.653,-53.636 h 2.961 z"
             style="fill:#e1e1e1;fill-opacity:1;fill-rule:nonzero;stroke:none"
             id="path92" /></g><g
           id="g94"
           transform="translate(77.6945,171.2373)"><path
             d="m 0,0 h -2.961 l -11.653,-53.636 h 2.962 z"
             style="fill:#e1e1e1;fill-opacity:1;fill-rule:nonzero;stroke:none"
             id="path96" /></g><g
           id="g98"
           transform="translate(169.6942,176.7285)"><path
             d="m 0,0 h -10.369 l 1.739,9 c 0.927,4.84 5.176,8.358 10.104,8.358 H 1.51 L 14.672,17.315 13.009,10.37 C 11.574,4.376 6.085,0 0,0 M 67.888,65.155 H 42.044 c -9.201,0 -17.502,-6.617 -19.672,-15.681 L 15.545,20.963 1.518,21.009 H 1.474 c -6.687,0 -12.432,-4.752 -13.688,-11.322 l -1.869,-9.762 c -2.823,-0.406 -5.243,-2.562 -5.926,-5.416 h 69.328 c 9.193,0 17.486,6.61 19.654,15.667 l 9.803,40.94 c 1.755,7.33 -3.448,14.039 -10.888,14.039"
             style="fill:#e7e7e7;fill-opacity:1;fill-rule:nonzero;stroke:none"
             id="path100" /></g><g
           id="g102"
           transform="translate(217.2744,171.2373)"><path
             d="M 0,0 H 2.961 L 14.614,-53.636 H 11.652 Z"
             style="fill:#e1e1e1;fill-opacity:1;fill-rule:nonzero;stroke:none"
             id="path104" /></g><g
           id="g106"
           transform="translate(206.1631,171.2373)"><path
             d="M 0,0 H 2.961 L 14.614,-53.636 H 11.652 Z"
             style="fill:#e1e1e1;fill-opacity:1;fill-rule:nonzero;stroke:none"
             id="path108" /></g><g
           id="g110"
           transform="translate(162.5592,171.2373)"><path
             d="m 0,0 h -2.961 l -11.653,-53.636 h 2.962 z"
             style="fill:#e1e1e1;fill-opacity:1;fill-rule:nonzero;stroke:none"
             id="path112" /></g><g
           id="g114"
           transform="translate(173.6705,171.2373)"><path
             d="m 0,0 h -2.961 l -11.653,-53.636 h 2.961 z"
             style="fill:#e1e1e1;fill-opacity:1;fill-rule:nonzero;stroke:none"
             id="path116" /></g><g
           id="g118"
           transform="translate(360.1545,230.0254)"><path
             d="m 0,0 h 48.292 l 3.919,43.058 H 3.919 Z"
             style="fill:#e7e7e7;fill-opacity:1;fill-rule:nonzero;stroke:none"
             id="path120" /></g><g
           id="g122"
           transform="translate(358.5127,230.0254)"><path
             d="m 0,0 h 48.292 l 3.919,43.058 H 3.919 Z"
             style="fill:#f0f0f0;fill-opacity:1;fill-rule:nonzero;stroke:none"
             id="path124" /></g><g
           id="g126"
           transform="translate(402.4727,234.792)"><path
             d="M 0,0 3.051,33.525 H -35.708 L -38.759,0 Z"
             style="fill:#ffffff;fill-opacity:1;fill-rule:nonzero;stroke:none"
             id="path128" /></g><g
           id="g130"
           transform="translate(348.9707,261.4678)"><path
             d="M 0,0 -2.862,-31.442 H 20.283 L 23.145,0 Z"
             style="fill:#e7e7e7;fill-opacity:1;fill-rule:nonzero;stroke:none"
             id="path132" /></g><g
           id="g134"
           transform="translate(347.7716,261.4678)"><path
             d="M 0,0 -2.862,-31.442 H 20.284 L 23.145,0 Z"
             style="fill:#f0f0f0;fill-opacity:1;fill-rule:nonzero;stroke:none"
             id="path136" /></g><g
           id="g138"
           transform="translate(350.9359,257.9873)"><path
             d="M 0,0 -2.229,-24.481 H 13.955 L 16.184,0 Z"
             style="fill:#ffffff;fill-opacity:1;fill-rule:nonzero;stroke:none"
             id="path140" /></g></g></g><g
       id="g142"><g
         id="g144"
         clip-path="url(#clipPath148)"><g
           id="g150"
           transform="translate(322.5021,408.8726)"><path
             d="m 0,0 c -50.651,-8.14 -110.03,46.812 -155.88,1.971 -40.06,-39.179 15.136,-89.066 -39.193,-116.499 -32.966,-16.645 -102.788,-38.847 -53.947,-94.566 29.651,-33.827 83.429,-50.481 128.021,-45.24 69.066,8.117 24.072,81.271 61.713,115.86 16.921,15.549 33.467,7.752 52.563,6.675 28.088,-1.583 64.328,-0.879 91.37,10.991 43.033,18.891 63.911,83.818 45.972,127.537 C 99.303,83.044 46.691,7.503 0,0"
             style="fill:#007cff;fill-opacity:1;fill-rule:nonzero;stroke:none"
             id="path152" /></g><g
           id="g154"><g
             id="g156" /><g
             id="g168"><g
               clip-path="url(#clipPath160)"
               opacity="0.899994"
               id="g166"><g
                 transform="translate(322.5021,408.8726)"
                 id="g164"><path
                   d="m 0,0 c -50.651,-8.14 -110.03,46.812 -155.88,1.971 -40.06,-39.179 15.136,-89.066 -39.193,-116.499 -32.966,-16.645 -102.788,-38.847 -53.947,-94.566 29.651,-33.827 83.429,-50.481 128.021,-45.24 69.066,8.117 24.072,81.271 61.713,115.86 16.921,15.549 33.467,7.752 52.563,6.675 28.088,-1.583 64.328,-0.879 91.37,10.991 43.033,18.891 63.911,83.818 45.972,127.537 C 99.303,83.044 46.691,7.503 0,0"
                   style="fill:#ffffff;fill-opacity:1;fill-rule:nonzero;stroke:none"
                   id="path162" /></g></g></g></g></g></g><g
       id="g170"><g
         id="g172"
         clip-path="url(#clipPath176)"><g
           id="g178"
           transform="translate(443.8894,83.7617)"><path
             d="m 0,0 c 0,-6.254 -86.807,-11.323 -193.889,-11.323 -107.082,0 -193.889,5.069 -193.889,11.323 0,6.254 86.807,11.323 193.889,11.323 C -86.807,11.323 0,6.254 0,0"
             style="fill:#f5f5f5;fill-opacity:1;fill-rule:nonzero;stroke:none"
             id="path180" /></g></g></g><g
       id="g182"><g
         id="g184"
         clip-path="url(#clipPath188)"><g
           id="g190"
           transform="translate(407.6104,187.5742)"><path
             d="m 0,0 h -263.426 c -6.575,0 -11.691,5.379 -11.369,11.954 l 9.835,201.032 c 0.322,6.575 5.964,11.954 12.539,11.954 H 11.005 c 6.575,0 11.691,-5.379 11.369,-11.954 L 12.539,11.954 C 12.217,5.379 6.574,0 0,0"
             style="fill:#007cff;fill-opacity:1;fill-rule:nonzero;stroke:none"
             id="path192" /></g><g
           id="g194"><g
             id="g196" /><g
             id="g208"><g
               clip-path="url(#clipPath200)"
               opacity="0.699997"
               id="g206"><g
                 transform="translate(407.6104,187.5742)"
                 id="g204"><path
                   d="m 0,0 h -263.426 c -6.575,0 -11.691,5.379 -11.369,11.954 l 9.835,201.032 c 0.322,6.575 5.964,11.954 12.539,11.954 H 11.005 c 6.575,0 11.691,-5.379 11.369,-11.954 L 12.539,11.954 C 12.217,5.379 6.574,0 0,0"
                   style="fill:#ffffff;fill-opacity:1;fill-rule:nonzero;stroke:none"
                   id="path202" /></g></g></g></g><g
           id="g210"
           transform="translate(428.8213,410.4038)"><path
             d="m 0,0 c -1.398,1.542 -3.165,2.752 -5.111,3.499 l 0.357,0.933 C -2.662,3.63 -0.762,2.33 0.74,0.672 Z"
             style="fill:#007cff;fill-opacity:1;fill-rule:nonzero;stroke:none"
             id="path212" /></g><path
           d="m 418.752,414.809 h -21.064 v 1 h 21.064 z"
           style="fill:#007cff;fill-opacity:1;fill-rule:nonzero;stroke:none"
           id="path214" /><g
           id="g216"
           transform="translate(418.6155,412.5142)"><path
             d="m 0,0 h -263.426 c -6.575,0 -12.217,-5.379 -12.539,-11.954 H 11.369 C 11.691,-5.379 6.575,0 0,0"
             style="fill:#007cff;fill-opacity:1;fill-rule:nonzero;stroke:none"
             id="path218" /></g><g
           id="g220"
           transform="translate(140.8625,201.126)"><path
             d="m 0,0 9.094,185.883 c 0.151,3.083 2.773,5.582 5.856,5.582 h 260.231 c 3.083,0 5.46,-2.499 5.309,-5.582 L 271.396,0 c -0.151,-3.083 -2.772,-5.582 -5.855,-5.582 H 5.309 C 2.226,-5.582 -0.151,-3.083 0,0"
             style="fill:#ffffff;fill-opacity:1;fill-rule:nonzero;stroke:none"
             id="path222" /></g><g
           id="g224"><g
             id="g226" /><g
             id="g238"><g
               clip-path="url(#clipPath230)"
               opacity="0.300003"
               id="g236"><g
                 transform="translate(177.7764,328.8594)"
                 id="g234"><path
                   d="m 0,0 h -11.963 c -1.119,0 -1.982,0.907 -1.927,2.026 l 1.029,21.031 c 0.054,1.119 1.006,2.026 2.125,2.026 H 1.227 c 1.119,0 1.982,-0.907 1.928,-2.026 L 2.126,2.026 C 2.071,0.907 1.119,0 0,0"
                   style="fill:#007cff;fill-opacity:1;fill-rule:nonzero;stroke:none"
                   id="path232" /></g></g></g></g><g
           id="g240"><g
             id="g242" /><g
             id="g254"><g
               clip-path="url(#clipPath246)"
               opacity="0.300003"
               id="g252"><g
                 transform="translate(201.8,328.8594)"
                 id="g250"><path
                   d="m 0,0 h -11.963 c -1.119,0 -1.982,0.907 -1.927,2.026 l 1.213,24.8 c 0.055,1.119 1.006,2.026 2.126,2.026 H 1.411 c 1.12,0 1.983,-0.907 1.928,-2.026 L 2.126,2.026 C 2.071,0.907 1.119,0 0,0"
                   style="fill:#007cff;fill-opacity:1;fill-rule:nonzero;stroke:none"
                   id="path248" /></g></g></g></g><g
           id="g256"><g
             id="g258" /><g
             id="g270"><g
               clip-path="url(#clipPath262)"
               opacity="0.300003"
               id="g268"><g
                 transform="translate(225.8236,328.8594)"
                 id="g266"><path
                   d="m 0,0 h -11.963 c -1.119,0 -1.982,0.907 -1.927,2.026 l 1.34,27.391 c 0.055,1.119 1.006,2.026 2.125,2.026 H 1.538 c 1.119,0 1.982,-0.907 1.928,-2.026 L 2.126,2.026 C 2.071,0.907 1.119,0 0,0"
                   style="fill:#007cff;fill-opacity:1;fill-rule:nonzero;stroke:none"
                   id="path264" /></g></g></g></g><g
           id="g272"><g
             id="g274" /><g
             id="g286"><g
               clip-path="url(#clipPath278)"
               opacity="0.300003"
               id="g284"><g
                 transform="translate(249.8472,328.8594)"
                 id="g282"><path
                   d="m 0,0 h -11.963 c -1.119,0 -1.982,0.907 -1.927,2.026 l 1.455,29.745 c 0.055,1.12 1.007,2.027 2.126,2.027 H 1.654 c 1.119,0 1.982,-0.907 1.927,-2.027 L 2.126,2.026 C 2.071,0.907 1.119,0 0,0"
                   style="fill:#007cff;fill-opacity:1;fill-rule:nonzero;stroke:none"
                   id="path280" /></g></g></g></g><g
           id="g288"
           transform="translate(273.8708,328.8594)"><path
             d="m 0,0 h -11.963 c -1.119,0 -1.982,0.907 -1.927,2.026 l 1.899,38.813 c 0.054,1.119 1.006,2.027 2.125,2.027 H 2.097 c 1.119,0 1.982,-0.908 1.927,-2.027 L 2.126,2.026 C 2.071,0.907 1.119,0 0,0"
             style="fill:#007cff;fill-opacity:1;fill-rule:nonzero;stroke:none"
             id="path290" /></g><g
           id="g292"
           transform="translate(270.7366,375.8364)"><path
             d="m 0,0 1.143,1.825 c 0.269,0.43 -0.04,0.989 -0.548,0.989 h -2.107 c -0.487,0 -0.799,-0.518 -0.572,-0.948 L -1.12,0.041 C -0.887,-0.399 -0.264,-0.422 0,0"
             style="fill:#1a2e35;fill-opacity:1;fill-rule:nonzero;stroke:none"
             id="path294" /></g><g
           id="g296"><g
             id="g298" /><g
             id="g310"><g
               clip-path="url(#clipPath302)"
               opacity="0.300003"
               id="g308"><g
                 transform="translate(297.8944,328.8594)"
                 id="g306"><path
                   d="m 0,0 h -11.963 c -1.119,0 -1.982,0.907 -1.927,2.026 l 1.599,32.69 c 0.055,1.119 1.007,2.026 2.126,2.026 H 1.798 c 1.119,0 1.982,-0.907 1.927,-2.026 L 2.126,2.026 C 2.071,0.907 1.119,0 0,0"
                   style="fill:#007cff;fill-opacity:1;fill-rule:nonzero;stroke:none"
                   id="path304" /></g></g></g></g><g
           id="g312"><g
             id="g314" /><g
             id="g326"><g
               clip-path="url(#clipPath318)"
               opacity="0.100006"
               id="g324"><g
                 transform="translate(298.9377,322.335)"
                 id="g322"><path
                   d="m 0,0 h -134.806 c -0.365,0 -0.649,0.299 -0.631,0.664 0.017,0.365 0.331,0.664 0.696,0.664 H 0.065 C 0.43,1.328 0.714,1.029 0.696,0.664 0.678,0.299 0.365,0 0,0"
                   style="fill:#1a2e35;fill-opacity:1;fill-rule:nonzero;stroke:none"
                   id="path320" /></g></g></g></g><g
           id="g328"><g
             id="g330" /><g
             id="g342"><g
               clip-path="url(#clipPath334)"
               opacity="0.100006"
               id="g340"><g
                 transform="translate(308.5419,205.417)"
                 id="g338"><path
                   d="m 0,0 8.674,177.301 c 0.017,0.348 0.316,0.632 0.663,0.632 h 0.064 c 0.348,0 0.618,-0.284 0.601,-0.632 L 1.328,0 C 1.311,-0.348 1.012,-0.632 0.665,-0.632 H 0.601 C 0.253,-0.632 -0.017,-0.348 0,0"
                   style="fill:#1a2e35;fill-opacity:1;fill-rule:nonzero;stroke:none"
                   id="path336" /></g></g></g></g><g
           id="g344"
           transform="translate(353.0476,349.7036)"><path
             d="m 0,0 c -0.929,-5.101 0.034,-10.018 2.403,-14.032 l -5.942,-3.66 c -3.242,5.521 -4.368,12.105 -3.187,18.593 2.427,13.332 14.121,23.563 27.59,24.13 L 20.822,18.208 C 10.799,17.799 1.869,10.265 0,0"
             style="fill:#007cff;fill-opacity:1;fill-rule:nonzero;stroke:none"
             id="path346" /></g><g
           id="g348"><g
             id="g350" /><g
             id="g362"><g
               clip-path="url(#clipPath354)"
               opacity="0.300003"
               id="g360"><g
                 transform="translate(399.9669,357.5435)"
                 id="g358"><path
                   d="m 0,0 -6.44,-2.599 c -2.443,6.696 -8.366,11.775 -16.015,12.8 -1.223,0.164 -2.444,0.22 -3.643,0.168 l 0.043,6.822 c 1.626,0.071 3.237,-0.006 4.833,-0.22 C -11.439,15.66 -3.33,9.177 0,0"
                   style="fill:#007cff;fill-opacity:1;fill-rule:nonzero;stroke:none"
                   id="path356" /></g></g></g></g><g
           id="g364"
           transform="translate(401.1354,343.2598)"><path
             d="m 0,0 c -2.756,-15.136 -17.397,-25.934 -32.435,-23.918 -8.094,1.084 -15.127,5.724 -19.192,12.67 l 5.943,3.66 c 2.965,-5.057 8.128,-8.709 14.481,-9.56 11.421,-1.531 22.384,6.554 24.477,18.049 0.691,3.798 0.334,7.49 -0.882,10.784 l 6.44,2.599 C 0.483,9.767 0.881,4.84 0,0"
             style="fill:#1a2e35;fill-opacity:1;fill-rule:nonzero;stroke:none"
             id="path366" /></g><g
           id="g368"
           transform="translate(352.875,370.2754)"><path
             d="M 0,0 C -0.132,0 -0.264,0.052 -0.362,0.155 L -4.8,4.821 h -15.219 c -0.276,0 -0.5,0.224 -0.5,0.5 0,0.277 0.224,0.5 0.5,0.5 h 15.434 c 0.137,0 0.268,-0.056 0.362,-0.155 L 0.362,0.845 C 0.553,0.645 0.545,0.328 0.345,0.138 0.248,0.046 0.124,0 0,0"
             style="fill:#1a2e35;fill-opacity:1;fill-rule:nonzero;stroke:none"
             id="path370" /></g><g
           id="g372"><g
             id="g374" /><g
             id="g386"><g
               clip-path="url(#clipPath378)"
               opacity="0.300003"
               id="g384"><g
                 transform="translate(381.8336,291.2432)"
                 id="g382"><path
                   d="m 0,0 c -4.28,2.653 -9.227,3.505 -13.969,2.749 l -0.734,6.744 C -8.19,10.518 -1.636,9.227 3.807,5.853 14.992,-1.081 19.223,-15.421 13.78,-27.979 L 7.524,-25.53 C 11.586,-16.191 8.612,-5.338 0,0"
                   style="fill:#007cff;fill-opacity:1;fill-rule:nonzero;stroke:none"
                   id="path380" /></g></g></g></g><g
           id="g388"
           transform="translate(368.2667,245.4307)"><path
             d="m 0,0 0.461,6.826 c 7.24,-0.123 14.534,3.518 18.863,10.173 0.692,1.064 1.285,2.165 1.767,3.283 l 6.256,-2.448 C 26.691,16.317 25.908,14.867 25.004,13.479 19.466,4.966 9.913,-0.185 0,0"
             style="fill:#1a2e35;fill-opacity:1;fill-rule:nonzero;stroke:none"
             id="path390" /></g><g
           id="g392"
           transform="translate(354.6138,249.4014)"><path
             d="m 0,0 c -12.699,7.872 -16.145,25.117 -7.633,38.201 4.582,7.043 11.963,11.857 20.15,13.134 l 0.734,-6.744 C 7.288,43.656 1.643,40.208 -1.953,34.68 -8.417,24.743 -5.838,11.831 3.807,5.853 6.993,3.878 10.547,2.902 14.114,2.855 L 13.653,-3.971 C 8.768,-3.891 4.061,-2.517 0,0"
             style="fill:#007cff;fill-opacity:1;fill-rule:nonzero;stroke:none"
             id="path394" /></g><g
           id="g396"
           transform="translate(349.2705,296.5942)"><path
             d="M 0,0 C -0.132,0 -0.264,0.052 -0.362,0.155 L -4.8,4.821 h -15.22 c -0.276,0 -0.5,0.224 -0.5,0.5 0,0.277 0.224,0.5 0.5,0.5 h 15.435 c 0.137,0 0.268,-0.056 0.362,-0.155 L 0.362,0.845 C 0.553,0.645 0.545,0.328 0.345,0.138 0.248,0.046 0.124,0 0,0"
             style="fill:#1a2e35;fill-opacity:1;fill-rule:nonzero;stroke:none"
             id="path398" /></g><g
           id="g400"
           transform="translate(336.0613,220.5869)"><path
             d="m 0,0 h -5.067 c -1.402,0 -2.605,-1.146 -2.674,-2.549 l -0.248,-5.067 c -0.068,-1.402 1.023,-2.549 2.424,-2.549 h 5.068 c 1.402,0 2.605,1.147 2.673,2.549 l 0.248,5.067 C 2.493,-1.146 1.402,0 0,0"
             style="fill:#007cff;fill-opacity:1;fill-rule:nonzero;stroke:none"
             id="path402" /></g><g
           id="g404"
           transform="translate(364.4448,220.5869)"><path
             d="m 0,0 h -5.067 c -1.402,0 -2.605,-1.146 -2.674,-2.549 l -0.248,-5.067 c -0.068,-1.402 1.022,-2.549 2.424,-2.549 h 5.068 c 1.401,0 2.605,1.147 2.673,2.549 l 0.248,5.067 C 2.493,-1.146 1.402,0 0,0"
             style="fill:#1a2e35;fill-opacity:1;fill-rule:nonzero;stroke:none"
             id="path406" /></g><g
           id="g408"><g
             id="g410" /><g
             id="g422"><g
               clip-path="url(#clipPath414)"
               opacity="0.300003"
               id="g420"><g
                 transform="translate(392.8282,220.5869)"
                 id="g418"><path
                   d="m 0,0 h -5.067 c -1.402,0 -2.605,-1.146 -2.674,-2.549 l -0.248,-5.067 c -0.068,-1.402 1.022,-2.549 2.424,-2.549 h 5.068 c 1.401,0 2.605,1.147 2.673,2.549 l 0.248,5.067 C 2.493,-1.146 1.402,0 0,0"
                   style="fill:#007cff;fill-opacity:1;fill-rule:nonzero;stroke:none"
                   id="path416" /></g></g></g></g><text
           transform="matrix(0.99880498,0,-0.04887352,-0.99880498,171.7186,280.5652)"
           style="font-variant:normal;font-weight:bold;font-stretch:normal;font-size:10.7666px;font-family:Arial;-inkscape-font-specification:Arial-BoldMT;writing-mode:lr-tb;fill:#1a2e35;fill-opacity:1;fill-rule:nonzero;stroke:none"
           id="text426"><tspan
             x="0 5.9862108 11.972422 14.965528 20.951738"
             y="0"
             sodipodi:role="line"
             id="tspan424">25.54</tspan></text><text
           transform="matrix(0.99880496,0,-0.04887375,-0.99880496,198.6287,280.5652)"
           style="font-variant:normal;font-weight:bold;font-stretch:normal;font-size:7.17768px;font-family:Arial;-inkscape-font-specification:Arial-BoldMT;writing-mode:lr-tb;fill:#1a2e35;fill-opacity:1;fill-rule:nonzero;stroke:none"
           id="text430"><tspan
             x="0"
             y="0"
             id="tspan428">%</tspan></text><g
           id="g432"
           transform="translate(215.7456,265.2129)"><path
             d="m 0,0 c -0.039,0 -0.077,0.004 -0.116,0.014 -0.269,0.063 -0.435,0.333 -0.371,0.601 3.38,14.216 10.55,28.77 18.953,29.243 5.644,0.314 8.864,-4.396 12.603,-9.854 2.692,-3.928 5.743,-8.381 10.212,-11.733 3.083,-2.312 6.226,-2.914 9.343,-1.79 6.951,2.507 13.604,13.811 17.362,29.502 0.063,0.267 0.332,0.435 0.602,0.37 0.269,-0.065 0.435,-0.335 0.37,-0.603 C 65.065,19.493 58.337,8.2 50.962,5.541 47.509,4.295 44.049,4.944 40.681,7.471 c -4.6,3.45 -7.702,7.976 -10.437,11.968 -3.715,5.423 -6.637,9.687 -11.722,9.421 C 10.634,28.416 3.78,14.238 0.486,0.385 0.431,0.154 0.226,0 0,0"
             style="fill:#007cff;fill-opacity:1;fill-rule:nonzero;stroke:none"
             id="path434" /></g><g
           id="g436"><g
             id="g438" /><g
             id="g450"><g
               clip-path="url(#clipPath442)"
               opacity="0.100006"
               id="g448"><g
                 transform="translate(170.3076,308.54)"
                 id="g446"><path
                   d="m 0,0 c -3.868,0 -7.168,-3.147 -7.357,-7.015 l -1.726,-35.269 c -0.09,-1.857 0.551,-3.606 1.807,-4.924 1.254,-1.316 2.965,-2.042 4.818,-2.042 h 121.153 c 3.868,0 7.167,3.146 7.358,7.015 l 1.725,35.269 c 0.09,1.857 -0.551,3.605 -1.807,4.924 C 124.717,-0.725 123.006,0 121.153,0 Z M 118.695,-50.25 H -2.458 c -2.129,0 -4.098,0.835 -5.542,2.353 -1.447,1.518 -2.186,3.53 -2.082,5.662 l 1.726,35.269 C -8.142,-2.573 -4.393,1 0,1 h 121.153 c 2.129,0 4.097,-0.835 5.541,-2.352 1.448,-1.519 2.187,-3.53 2.082,-5.663 l -1.725,-35.269 c -0.215,-4.393 -3.964,-7.966 -8.356,-7.966"
                   style="fill:#1a2e35;fill-opacity:1;fill-rule:nonzero;stroke:none"
                   id="path444" /></g></g></g></g><g
           id="g452"><g
             id="g454" /><g
             id="g466"><g
               clip-path="url(#clipPath458)"
               opacity="0.100006"
               id="g464"><g
                 transform="translate(174.6592,303.1167)"
                 id="g462"><path
                   d="m 0,0 c -0.71,0 -1.339,-0.6 -1.374,-1.311 -0.017,-0.337 0.099,-0.654 0.326,-0.893 0.226,-0.237 0.536,-0.368 0.873,-0.368 h 19.571 c 0.71,0 1.34,0.6 1.375,1.31 0.016,0.338 -0.1,0.655 -0.327,0.893 C 20.218,-0.131 19.908,0 19.571,0 Z M 19.396,-3.572 H -0.175 c -0.613,0 -1.18,0.241 -1.597,0.679 -0.418,0.438 -0.631,1.018 -0.601,1.631 C -2.312,-0.015 -1.248,1 0,1 h 19.571 c 0.613,0 1.18,-0.241 1.597,-0.679 0.418,-0.439 0.631,-1.018 0.602,-1.632 -0.062,-1.247 -1.126,-2.261 -2.374,-2.261"
                   style="fill:#1a2e35;fill-opacity:1;fill-rule:nonzero;stroke:none"
                   id="path460" /></g></g></g></g><g
           id="g468"
           transform="translate(176.2996,269.8027)"><path
             d="M 0,0 H -5.081 L -5.33,-5.081 h 5.081 z"
             style="fill:#007cff;fill-opacity:1;fill-rule:nonzero;stroke:none"
             id="path470" /></g><g
           id="g472"><g
             id="g474" /><g
             id="g486"><g
               clip-path="url(#clipPath478)"
               opacity="0.300003"
               id="g484"><g
                 transform="translate(181.8715,204.8281)"
                 id="g482"><path
                   d="m 0,0 h -10.366 c -1.906,0 -3.389,1.56 -3.296,3.466 l 0.507,10.366 c 0.093,1.906 1.729,3.466 3.635,3.466 H 0.846 c 1.906,0 3.39,-1.56 3.296,-3.466 L 3.635,3.466 C 3.542,1.56 1.906,0 0,0"
                   style="fill:#007cff;fill-opacity:1;fill-rule:nonzero;stroke:none"
                   id="path480" /></g></g></g></g><g
           id="g488"><g
             id="g490" /><g
             id="g502"><g
               clip-path="url(#clipPath494)"
               opacity="0.100006"
               id="g500"><g
                 transform="translate(195.1372,215.4678)"
                 id="g498"><path
                   d="m 0,0 c -1.11,0 -2.058,-0.904 -2.113,-2.016 -0.026,-0.524 0.155,-1.018 0.509,-1.39 0.354,-0.371 0.837,-0.575 1.36,-0.575 h 26.725 c 1.11,0 2.058,0.903 2.112,2.014 0.026,0.526 -0.155,1.02 -0.509,1.392 C 27.731,-0.204 27.248,0 26.725,0 Z M 26.481,-4.981 H -0.244 c -0.799,0 -1.54,0.314 -2.084,0.885 -0.545,0.573 -0.823,1.328 -0.784,2.129 C -3.031,-0.331 -1.635,1 0,1 h 26.725 c 0.799,0 1.54,-0.314 2.084,-0.886 0.545,-0.572 0.822,-1.329 0.783,-2.13 -0.08,-1.635 -1.475,-2.965 -3.111,-2.965"
                   style="fill:#1a2e35;fill-opacity:1;fill-rule:nonzero;stroke:none"
                   id="path496" /></g></g></g></g><g
           id="g504"
           transform="translate(176.9902,210.4863)"><path
             d="M 0,0 C -0.008,0 -0.017,0 -0.025,0.001 -0.301,0.014 -0.513,0.249 -0.5,0.524 l 0.216,4.428 C -0.27,5.229 -0.044,5.469 0.24,5.427 0.516,5.414 0.729,5.179 0.715,4.903 L 0.499,0.476 C 0.486,0.208 0.265,0 0,0"
             style="fill:#007cff;fill-opacity:1;fill-rule:nonzero;stroke:none"
             id="path506" /></g><g
           id="g508"
           transform="translate(175.0903,213.4248)"><path
             d="m 0,0 c -0.132,0 -0.264,0.052 -0.362,0.155 -0.19,0.199 -0.183,0.516 0.017,0.707 L 1.798,2.905 C 1.894,2.996 2.02,3.046 2.155,3.043 2.288,3.04 2.414,2.983 2.505,2.888 L 4.448,0.845 C 4.639,0.645 4.63,0.328 4.431,0.138 4.231,-0.052 3.914,-0.045 3.724,0.155 L 2.125,1.836 0.345,0.138 C 0.248,0.046 0.124,0 0,0"
             style="fill:#007cff;fill-opacity:1;fill-rule:nonzero;stroke:none"
             id="path510" /></g><text
           transform="matrix(0.99880498,0,-0.04887352,-0.99880498,169.444,234.0767)"
           style="font-variant:normal;font-weight:bold;font-stretch:normal;font-size:10.7666px;font-family:Arial;-inkscape-font-specification:Arial-BoldMT;writing-mode:lr-tb;fill:#1a2e35;fill-opacity:1;fill-rule:nonzero;stroke:none"
           id="text514"><tspan
             x="0 5.9862108 11.972422 17.958633 23.944843 26.937948 32.92416 38.91037 44.89658 47.889687 53.875896"
             y="0"
             sodipodi:role="line"
             id="tspan512">$323,078.00</tspan></text><g
           id="g516"><g
             id="g518" /><g
             id="g530"><g
               clip-path="url(#clipPath522)"
               opacity="0.399994"
               id="g528"><g
                 transform="translate(250.2345,222.126)"
                 id="g526"><path
                   d="m 0,0 h -10.366 c -1.906,0 -3.542,-1.56 -3.635,-3.466 l -0.507,-10.366 c -0.094,-1.906 1.39,-3.466 3.296,-3.466 h 10.366 c 1.906,0 3.542,1.56 3.635,3.466 L 3.296,-3.466 C 3.389,-1.56 1.906,0 0,0"
                   style="fill:#1a2e35;fill-opacity:1;fill-rule:nonzero;stroke:none"
                   id="path524" /></g></g></g></g><g
           id="g532"><g
             id="g534" /><g
             id="g546"><g
               clip-path="url(#clipPath538)"
               opacity="0.100006"
               id="g544"><g
                 transform="translate(262.6543,215.4678)"
                 id="g542"><path
                   d="m 0,0 c -1.11,0 -2.059,-0.904 -2.113,-2.016 -0.026,-0.524 0.155,-1.018 0.509,-1.39 0.353,-0.371 0.836,-0.575 1.36,-0.575 H 26.48 c 1.111,0 2.059,0.904 2.114,2.014 0.025,0.526 -0.156,1.02 -0.51,1.392 C 27.73,-0.204 27.248,0 26.725,0 Z M 26.48,-4.981 H -0.244 c -0.8,0 -1.54,0.314 -2.084,0.885 -0.545,0.573 -0.823,1.328 -0.783,2.129 C -3.031,-0.331 -1.636,1 0,1 h 26.725 c 0.799,0 1.54,-0.314 2.084,-0.886 0.545,-0.572 0.823,-1.329 0.783,-2.13 -0.08,-1.635 -1.476,-2.965 -3.112,-2.965"
                   style="fill:#1a2e35;fill-opacity:1;fill-rule:nonzero;stroke:none"
                   id="path540" /></g></g></g></g><g
           id="g548"
           transform="translate(244.5342,211.04)"><path
             d="M 0,0 C -0.008,0 -0.017,0 -0.025,0.001 -0.301,0.014 -0.513,0.249 -0.5,0.524 l 0.216,4.428 C -0.271,5.229 -0.041,5.461 0.24,5.427 0.516,5.414 0.729,5.179 0.715,4.903 L 0.499,0.476 C 0.486,0.208 0.265,0 0,0"
             style="fill:#ffffff;fill-opacity:1;fill-rule:nonzero;stroke:none"
             id="path550" /></g><g
           id="g552"
           transform="translate(244.5063,210.4863)"><path
             d="m 0,0 h -0.012 c -0.133,0.003 -0.259,0.06 -0.35,0.155 l -1.943,2.043 c -0.191,0.2 -0.182,0.517 0.017,0.707 0.2,0.19 0.517,0.184 0.707,-0.017 l 1.599,-1.681 1.78,1.698 c 0.2,0.19 0.516,0.183 0.707,-0.017 0.19,-0.2 0.183,-0.516 -0.017,-0.707 L 0.345,0.138 C 0.252,0.05 0.128,0 0,0"
             style="fill:#ffffff;fill-opacity:1;fill-rule:nonzero;stroke:none"
             id="path554" /></g></g></g><g
       id="g556"><g
         id="g558"
         clip-path="url(#clipPath562)"><g
           id="g564"
           transform="translate(112.1062,385)"><path
             d="m 0,0 c -4.026,-5.208 -4.735,-12.387 -4.51,-16.056 0.279,-4.558 -5.667,-4.769 -4.022,-12.683 1.425,-6.863 -2.74,-9.038 -2.645,-14.372 0.222,-12.45 11.387,-16.133 32.222,-12.45 20.836,3.684 8.314,22.705 11.101,30.188 2.788,7.484 0.575,25.051 -4.99,24.262 C 27.782,12.111 8.03,10.389 0,0"
             style="fill:#1a2e35;fill-opacity:1;fill-rule:nonzero;stroke:none"
             id="path566" /></g><g
           id="g568"
           transform="translate(119.1545,329.0107)"><path
             d="m 0,0 c -0.141,-2.534 -0.411,-4.811 -0.748,-7.196 -0.351,-2.357 -0.759,-4.711 -1.282,-7.057 -0.52,-2.351 -1.134,-4.699 -1.871,-7.043 -0.744,-2.353 -1.638,-4.698 -2.73,-7.045 l -0.232,-0.498 c -1.122,-2.414 -3.933,-3.51 -6.379,-2.562 -1.479,0.576 -2.775,1.246 -4.041,1.925 -1.267,0.671 -2.445,1.431 -3.62,2.176 -1.162,0.769 -2.291,1.565 -3.39,2.404 -1.101,0.851 -2.162,1.701 -3.211,2.681 -1.237,1.155 -1.303,3.094 -0.147,4.331 0.77,0.825 1.89,1.129 2.917,0.898 l 0.101,-0.024 c 1.278,-0.292 2.569,-0.669 3.831,-1.023 l 3.751,-1.101 3.643,-1.07 c 1.183,-0.337 2.36,-0.631 3.409,-0.86 l -6.611,-3.061 c 0.645,1.869 1.176,3.859 1.676,5.891 0.46,2.054 0.868,4.15 1.241,6.269 0.342,2.129 0.678,4.273 0.956,6.431 0.284,2.129 0.545,4.382 0.768,6.39 l 0.015,0.138 c 0.364,3.294 3.329,5.668 6.623,5.304 C -2.152,5.946 0.17,3.154 0,0"
             style="fill:#ce5b51;fill-opacity:1;fill-rule:nonzero;stroke:none"
             id="path570" /></g><g
           id="g572"
           transform="translate(90.8986,315.4463)"><path
             d="M 0,0 -2.46,0.876 C -3.731,1.329 -5.126,0.648 -5.552,-0.633 l -0.934,-2.81 c -0.372,-1.119 0.121,-2.342 1.165,-2.89 l 3.079,-1.619 c 0,0 5.039,-3.841 7.513,-1.493 L 6.642,-5.438 2.93,-1.825 C 2.096,-1.013 1.097,-0.391 0,0"
             style="fill:#ce5b51;fill-opacity:1;fill-rule:nonzero;stroke:none"
             id="path574" /></g><g
           id="g576"
           transform="translate(117.9292,342.7627)"><path
             d="m 0,0 c -7.37,-1.388 -8.929,-4.401 -14.355,-15.592 1.637,-7.363 15.626,-13.835 15.626,-13.835 0,0 10.881,19.908 -1.271,29.427"
             style="fill:#1a2e35;fill-opacity:1;fill-rule:nonzero;stroke:none"
             id="path578" /></g><g
           id="g580"
           transform="translate(130.5782,90.291)"><path
             d="m 0,0 c 4.618,6.163 5.009,7.862 7.916,11.1 2.487,2.78 2.472,2.564 5.4,4.946 1.939,1.577 0.774,3.843 -1.01,4.802 -1.389,0.746 -2.928,1.402 -4.604,2.382 L 0.078,17.014 C 0.835,13.477 -0.733,6.114 -3.945,1.223 -6.234,-2.28 -1.853,-2.465 0,0"
             style="fill:#1a2e35;fill-opacity:1;fill-rule:nonzero;stroke:none"
             id="path582" /></g><g
           id="g584"
           transform="translate(108.0784,286.7295)"><path
             d="m 0,0 c 0,0 -7.101,-49.815 -12.388,-83.808 -1.061,-6.819 -0.413,-13.572 1.88,-19.677 9.053,-24.111 32.513,-76.535 32.513,-76.535 1.075,-1.055 7.565,5.116 8.197,6.812 0,0 -8.115,66.251 -20.719,81.097 C 35.208,-39.026 34.807,0 34.807,0 Z"
             style="fill:#007cff;fill-opacity:1;fill-rule:nonzero;stroke:none"
             id="path586" /></g><g
           id="g588"><g
             id="g590" /><g
             id="g606"><g
               clip-path="url(#clipPath594)"
               opacity="0.199997"
               id="g604"><g
                 transform="translate(142.8676,285.2471)"
                 id="g598"><path
                   d="m 0,0 -18.981,-1.326 c 0,0 -3.678,-54.72 -4.463,-85.401 C -2.374,-41.592 -0.219,-7.358 0,0"
                   style="fill:#000000;fill-opacity:1;fill-rule:nonzero;stroke:none"
                   id="path596" /></g><g
                 transform="translate(119.2876,192.2451)"
                 id="g602"><path
                   d="m 0,0 c -0.259,-15.73 -1.052,-36.207 -2.593,-55.115 4.81,-11.074 9.14,-20.863 11.501,-26.177 2.28,6.59 4.829,14.455 7.112,22.796 C 12.828,-39.224 7.238,-11.489 0,0"
                   style="fill:#000000;fill-opacity:1;fill-rule:nonzero;stroke:none"
                   id="path600" /></g></g></g></g><g
           id="g608"
           transform="translate(126.7242,109.2949)"><path
             d="m 0,0 c 0.572,-0.85 1.583,-2.37 2.287,-3.53 0.233,-0.384 0.749,-0.464 1.173,-0.192 3.17,2.036 7.551,6.219 8.976,7.61 0.283,0.275 0.374,0.676 0.232,1 l -1.529,3.48 C 10.93,8.843 10.31,8.955 9.852,8.602 L 0.266,1.191 C -0.126,0.889 -0.245,0.365 0,0"
             style="fill:#007cff;fill-opacity:1;fill-rule:nonzero;stroke:none"
             id="path610" /></g><g
           id="g612"><g
             id="g614" /><g
             id="g626"><g
               clip-path="url(#clipPath618)"
               opacity="0.300003"
               id="g624"><g
                 transform="translate(126.7242,109.2949)"
                 id="g622"><path
                   d="m 0,0 c 0.572,-0.85 1.583,-2.37 2.287,-3.53 0.233,-0.384 0.749,-0.464 1.173,-0.192 3.17,2.036 7.551,6.219 8.976,7.61 0.283,0.275 0.374,0.676 0.232,1 l -1.529,3.48 C 10.93,8.843 10.31,8.955 9.852,8.602 L 0.266,1.191 C -0.126,0.889 -0.245,0.365 0,0"
                   style="fill:#ffffff;fill-opacity:1;fill-rule:nonzero;stroke:none"
                   id="path620" /></g></g></g></g><g
           id="g628"
           transform="translate(104.0741,87.8311)"><path
             d="m 0,0 c 7.256,-1.445 10.06,-1.887 14.193,-2.567 3.543,-0.577 4.198,-1.161 7.029,-1.66 2.365,-0.419 3.205,1.748 3.549,4.362 0.174,1.313 0.495,4.541 0.862,6.645 L 14.385,7.375 C 11.708,4.939 4.561,4.134 0.245,4.423 -3.874,4.699 -2.892,0.576 0,0"
             style="fill:#1a2e35;fill-opacity:1;fill-rule:nonzero;stroke:none"
             id="path630" /></g><g
           id="g632"
           transform="translate(118.5153,286.7295)"><path
             d="m 0,0 c 0,0 3.738,-63.976 4.421,-92.972 0.717,-30.452 0.135,-78.028 -5.39,-98.257 1.518,-1.007 8.519,-1.012 12.161,0.055 0,0 22.738,64.503 14.174,96.856 17.226,71.262 6.992,88.089 4.132,94.318 z"
             style="fill:#007cff;fill-opacity:1;fill-rule:nonzero;stroke:none"
             id="path634" /></g><g
           id="g636"
           transform="translate(118.5122,99.6357)"><path
             d="m 0,0 c -0.343,-0.993 -0.978,-2.72 -1.655,-4.021 -0.244,-0.468 -0.054,-0.942 0.412,-1.064 3.896,-1.019 10.114,-0.632 12.099,-0.472 0.38,0.031 0.741,0.286 0.909,0.635 l 1.794,3.738 c 0.246,0.511 -0.023,1.016 -0.562,1.055 L 1.097,0.733 C 0.636,0.768 0.155,0.448 0,0"
             style="fill:#007cff;fill-opacity:1;fill-rule:nonzero;stroke:none"
             id="path638" /></g><g
           id="g640"><g
             id="g642" /><g
             id="g654"><g
               clip-path="url(#clipPath646)"
               opacity="0.300003"
               id="g652"><g
                 transform="translate(118.5122,99.6357)"
                 id="g650"><path
                   d="m 0,0 c -0.343,-0.993 -0.978,-2.72 -1.655,-4.021 -0.244,-0.468 -0.054,-0.942 0.412,-1.064 3.896,-1.019 10.114,-0.632 12.099,-0.472 0.38,0.031 0.741,0.286 0.909,0.635 l 1.794,3.738 c 0.246,0.511 -0.023,1.016 -0.562,1.055 L 1.097,0.733 C 0.636,0.768 0.155,0.448 0,0"
                   style="fill:#ffffff;fill-opacity:1;fill-rule:nonzero;stroke:none"
                   id="path648" /></g></g></g></g><g
           id="g656"
           transform="translate(147.7272,343.292)"><path
             d="m 0,0 c -1.582,0.161 -3.26,0.294 -4.983,0.378 -6.696,0.324 -12.186,0.538 -18.134,-0.001 -1.971,-0.179 -4.013,-0.427 -5.967,-0.698 -7.047,-0.978 -12.61,-7.116 -12.827,-14.153 -0.121,-3.926 0.73,-9.855 1.557,-19.207 1.079,-12.187 -1.888,-18.389 0.705,-22.882 5.092,-4.84 28.467,-2.417 39.935,0 v 0 0 0 C 3.73,-52.125 -3.02,-40.542 7.965,-12.105 10.164,-6.416 5.92,-0.601 0,0"
             style="fill:#1a2e35;fill-opacity:1;fill-rule:nonzero;stroke:none"
             id="path658" /></g><g
           id="g660"
           transform="translate(124.0106,333.938)"><path
             d="m 0,0 c -0.209,-0.744 -0.645,-1.271 -0.973,-1.179 -0.328,0.093 -0.424,0.77 -0.215,1.513 0.209,0.744 0.645,1.271 0.973,1.179 C 0.113,1.421 0.209,0.743 0,0"
             style="fill:#ffffff;fill-opacity:1;fill-rule:nonzero;stroke:none"
             id="path662" /></g><g
           id="g664"
           transform="translate(122.5356,327.7686)"><path
             d="m 0,0 c -0.095,-0.766 -0.446,-1.354 -0.784,-1.312 -0.338,0.041 -0.536,0.697 -0.441,1.463 0.095,0.767 0.446,1.354 0.784,1.313 C -0.103,1.422 0.095,0.767 0,0"
             style="fill:#ffffff;fill-opacity:1;fill-rule:nonzero;stroke:none"
             id="path666" /></g><g
           id="g668"
           transform="translate(138.9069,363.4614)"><path
             d="m 0,0 c -0.177,-6.042 -0.952,-15.898 2.841,-19.792 0,0 -5.527,0.83 -17.261,-6.427 -3.397,4.873 -0.873,6.427 -0.873,6.427 3.34,0.61 6.264,4.017 4.435,8.241 z"
             style="fill:#ce5b51;fill-opacity:1;fill-rule:nonzero;stroke:none"
             id="path670" /></g><g
           id="g672"
           transform="translate(126.9539,338.7041)"><path
             d="m 0,0 c 3.865,-0.55 5.075,-6.387 5.075,-6.387 0,0 9.282,6.565 12.224,11.196 C 15.921,5.53 13.909,6.96 13.909,6.96 13.909,6.96 2.256,2.23 0,0"
             style="fill:#ffffff;fill-opacity:1;fill-rule:nonzero;stroke:none"
             id="path674" /></g><g
           id="g676"
           transform="translate(123.2806,339.3257)"><path
             d="m 0,0 c 0,0 -3.068,-0.664 -4.607,-4.932 -0.885,8.511 3.15,9.293 3.15,9.293 0,0 1.212,0.866 3.494,0.506 C -1.028,3.249 0,0 0,0"
             style="fill:#ffffff;fill-opacity:1;fill-rule:nonzero;stroke:none"
             id="path678" /></g><g
           id="g680"><g
             id="g682" /><g
             id="g694"><g
               clip-path="url(#clipPath686)"
               opacity="0.199997"
               id="g692"><g
                 transform="translate(132.1167,355.5439)"
                 id="g690"><path
                   d="m 0,0 -1.527,-0.929 -2.541,-2.703 c 0.709,-1.619 0.709,-3.128 0.243,-4.393 2.895,1.124 5.821,3.391 6.59,5.84 0.005,0.018 0.011,0.036 0.016,0.053 C 3.282,-0.491 1.466,0.892 0,0"
                   style="fill:#000000;fill-opacity:1;fill-rule:nonzero;stroke:none"
                   id="path688" /></g></g></g></g><g
           id="g696"
           transform="translate(136.9615,377.6089)"><path
             d="m 0,0 c 2.79,-9.171 4.16,-12.984 1.486,-19.478 -4.024,-9.768 -15.537,-11.721 -20.923,-3.697 -4.848,7.221 -8.596,21.007 -1.429,28.256 C -13.805,12.224 -2.79,9.171 0,0"
             style="fill:#ce5b51;fill-opacity:1;fill-rule:nonzero;stroke:none"
             id="path698" /></g><g
           id="g700"><g
             id="g702" /><g
             id="g714"><g
               clip-path="url(#clipPath706)"
               opacity="0.399994"
               id="g712"><g
                 transform="translate(127.2456,382.9653)"
                 id="g710"><path
                   d="M 0,0 C -2.344,-6.252 3.226,-14.045 11.197,-13.444 14.901,-6.352 12.651,-0.931 10.674,1.28 8.698,3.491 2.697,3.891 0,0"
                   style="fill:#1a2e35;fill-opacity:1;fill-rule:nonzero;stroke:none"
                   id="path708" /></g></g></g></g><g
           id="g716"
           transform="translate(137.8737,383.0557)"><path
             d="M 0,0 C -1.076,-7.59 -25.714,-2.889 -27.052,-10.5 -27.111,-0.556 -16,12.722 0,0"
             style="fill:#1a2e35;fill-opacity:1;fill-rule:nonzero;stroke:none"
             id="path718" /></g><g
           id="g720"
           transform="translate(124.8953,368.249)"><path
             d="m 0,0 c 0.267,-0.759 0.103,-1.54 -0.367,-1.742 -0.469,-0.203 -1.067,0.248 -1.335,1.008 -0.267,0.759 -0.103,1.539 0.367,1.742 C -0.865,1.211 -0.267,0.76 0,0"
             style="fill:#1a2e35;fill-opacity:1;fill-rule:nonzero;stroke:none"
             id="path722" /></g><g
           id="g724"
           transform="translate(115.6646,365.3618)"><path
             d="m 0,0 c 0.267,-0.759 0.103,-1.54 -0.367,-1.743 -0.47,-0.202 -1.067,0.249 -1.335,1.009 -0.267,0.759 -0.103,1.539 0.367,1.742 C -0.865,1.211 -0.268,0.76 0,0"
             style="fill:#1a2e35;fill-opacity:1;fill-rule:nonzero;stroke:none"
             id="path726" /></g><g
           id="g728"
           transform="translate(114.5518,366.4175)"><path
             d="m 0,0 -1.912,-0.219 c 0,0 1.388,-1.043 1.912,0.219"
             style="fill:#1a2e35;fill-opacity:1;fill-rule:nonzero;stroke:none"
             id="path730" /></g><g
           id="g732"
           transform="translate(118.2502,365.7935)"><path
             d="m 0,0 c 0,0 -0.068,-3.797 -0.856,-5.954 1.279,-0.526 2.742,0.598 2.742,0.598 z"
             style="fill:#bb221f;fill-opacity:1;fill-rule:nonzero;stroke:none"
             id="path734" /></g><g
           id="g736"
           transform="translate(122.5372,357.937)"><path
             d="m 0,0 c -0.385,-0.162 -0.805,-0.298 -1.264,-0.401 -0.124,-0.028 -0.24,0.055 -0.26,0.184 -0.019,0.129 0.062,0.254 0.189,0.284 3.352,0.745 4.55,3.538 4.561,3.566 0.051,0.124 0.186,0.186 0.3,0.138 C 3.641,3.724 3.693,3.585 3.641,3.463 3.596,3.354 2.633,1.104 0,0"
             style="fill:#1a2e35;fill-opacity:1;fill-rule:nonzero;stroke:none"
             id="path738" /></g><g
           id="g740"
           transform="translate(142.8348,369.7344)"><path
             d="m 0,0 c 0.058,-2.159 -0.779,-3.955 -1.883,-4.982 -1.66,-1.545 -3.683,0.225 -4.22,2.783 C -6.587,0.104 -6.306,3.684 -4.159,4.21 -2.044,4.729 -0.066,2.469 0,0"
             style="fill:#ce5b51;fill-opacity:1;fill-rule:nonzero;stroke:none"
             id="path742" /></g><g
           id="g744"
           transform="translate(124.7135,372.6221)"><path
             d="m 0,0 c -0.12,-0.025 -0.246,-0.001 -0.348,0.077 -1.59,1.22 -3.195,0.591 -3.213,0.584 -0.238,-0.094 -0.498,0.022 -0.577,0.266 -0.079,0.244 0.052,0.52 0.293,0.618 C -3.761,1.578 -1.748,2.37 0.226,0.854 0.422,0.704 0.453,0.407 0.295,0.192 0.219,0.089 0.112,0.023 0,0"
             style="fill:#1a2e35;fill-opacity:1;fill-rule:nonzero;stroke:none"
             id="path746" /></g><g
           id="g748"
           transform="translate(111.4475,367.9092)"><path
             d="M 0,0 C -0.105,-0.051 -0.225,-0.062 -0.338,-0.021 -0.571,0.063 -0.685,0.335 -0.594,0.585 0.329,3.094 2.377,3.675 2.465,3.698 2.711,3.765 2.951,3.612 3.001,3.356 3.051,3.101 2.893,2.84 2.648,2.772 2.568,2.75 0.984,2.276 0.251,0.281 0.204,0.152 0.111,0.054 0,0"
             style="fill:#1a2e35;fill-opacity:1;fill-rule:nonzero;stroke:none"
             id="path750" /></g><g
           id="g752"
           transform="translate(123.7825,369.3047)"><path
             d="m 0,0 -1.912,-0.219 c 0,0 1.388,-1.043 1.912,0.219"
             style="fill:#1a2e35;fill-opacity:1;fill-rule:nonzero;stroke:none"
             id="path754" /></g><g
           id="g756"
           transform="translate(153.7896,322.1753)"><path
             d="m 0,0 c 0.009,-0.528 0.004,-0.775 -0.003,-1.137 l -0.035,-0.979 c -0.031,-0.643 -0.093,-1.271 -0.158,-1.899 -0.132,-1.253 -0.347,-2.489 -0.602,-3.723 -0.533,-2.46 -1.283,-4.909 -2.374,-7.281 -1.068,-2.373 -2.453,-4.684 -4.213,-6.765 -1.724,-2.104 -3.868,-3.925 -6.205,-5.37 l -0.355,-0.22 c -0.3,-0.185 -0.634,-0.327 -0.957,-0.419 -2.234,-0.629 -3.922,-0.327 -5.202,0.006 -1.294,0.361 -2.304,0.836 -3.233,1.325 -1.833,0.984 -3.283,2.122 -4.662,3.268 -1.356,1.17 -2.597,2.382 -3.759,3.652 -1.164,1.285 -2.232,2.555 -3.267,4.017 -0.965,1.364 -0.642,3.253 0.722,4.218 0.998,0.707 2.277,0.724 3.27,0.147 l 0.116,-0.069 4.023,-2.344 c 1.339,-0.766 2.667,-1.51 3.977,-2.157 1.288,-0.665 2.6,-1.218 3.706,-1.568 0.543,-0.168 1.05,-0.265 1.333,-0.251 0.288,-0.006 0.268,0.179 -0.419,0.044 l -1.311,-0.64 c 1.228,0.981 2.295,2.117 3.211,3.426 0.461,0.651 0.88,1.346 1.252,2.085 0.389,0.726 0.741,1.489 1.046,2.289 0.612,1.595 1.106,3.298 1.448,5.06 0.182,0.879 0.311,1.774 0.43,2.662 0.056,0.444 0.101,0.89 0.139,1.323 l 0.083,1.116 0.04,0.527 c 0.246,3.298 3.12,5.772 6.418,5.526 C -2.437,5.637 -0.062,3.051 0,0"
             style="fill:#ce5b51;fill-opacity:1;fill-rule:nonzero;stroke:none"
             id="path758" /></g><g
           id="g760"
           transform="translate(116.326,301.8159)"><path
             d="m 0,0 h -21.651 c -2.019,0 -3.946,1.418 -4.281,3.151 l -2.658,13.745 c -0.335,1.734 1.043,3.152 3.062,3.152 h 21.651 c 2.02,0 3.946,-1.418 4.281,-3.152 L 3.062,3.151 C 3.397,1.418 2.019,0 0,0"
             style="fill:#007cff;fill-opacity:1;fill-rule:nonzero;stroke:none"
             id="path762" /></g><g
           id="g764"
           transform="translate(90.8369,320.2627)"><path
             d="M 0,0 C -0.698,0 -1.295,-0.238 -1.637,-0.653 -1.89,-0.959 -1.981,-1.342 -1.9,-1.758 l 2.584,-13.365 c 0.229,-1.179 1.641,-2.175 3.085,-2.175 H 24.82 c 0.699,0 1.295,0.238 1.637,0.653 0.253,0.306 0.344,0.688 0.263,1.105 L 24.136,-2.175 C 23.908,-0.996 22.495,0 21.051,0 Z M 24.82,-17.548 H 3.769 c -1.556,0 -3.081,1.089 -3.33,2.378 l -2.584,13.364 c -0.096,0.493 0.013,0.946 0.315,1.312 0.39,0.473 1.057,0.744 1.83,0.744 h 21.051 c 1.556,0 3.081,-1.089 3.33,-2.377 l 2.584,-13.365 c 0.096,-0.493 -0.013,-0.946 -0.315,-1.312 -0.389,-0.473 -1.056,-0.744 -1.83,-0.744"
             style="fill:#ffffff;fill-opacity:1;fill-rule:nonzero;stroke:none"
             id="path766" /></g><g
           id="g768"
           transform="translate(116.7869,314.9248)"><path
             d="M 0,0 -2.533,0.634 C -3.842,0.961 -5.165,0.149 -5.465,-1.167 l -0.658,-2.887 c -0.262,-1.149 0.347,-2.32 1.439,-2.764 l 3.221,-1.314 c 0,0 5.387,-3.335 7.622,-0.76 l 0.978,4.121 -4.044,3.238 C 2.184,-0.806 1.129,-0.283 0,0"
             style="fill:#ce5b51;fill-opacity:1;fill-rule:nonzero;stroke:none"
             id="path770" /></g><g
           id="g772"
           transform="translate(148.0984,343.2437)"><path
             d="m 0,0 c 8.775,-0.521 11.47,-9.67 8.553,-26.314 -1.417,-6.25 -18.944,2.293 -18.944,2.293 0,0 -0.612,17.777 10.391,24.021"
             style="fill:#1a2e35;fill-opacity:1;fill-rule:nonzero;stroke:none"
             id="path774" /></g></g></g><g
       id="g776"><g
         id="g778"
         clip-path="url(#clipPath782)"><g
           id="g784"
           transform="translate(395.8798,165.542)"><path
             d="M 0,0 C -3.186,20.005 5.548,46.232 16.628,44.302 25.815,42.7 1.9,6.11 0,0"
             style="fill:#007cff;fill-opacity:1;fill-rule:nonzero;stroke:none"
             id="path786" /></g><g
           id="g788"
           transform="translate(392.3866,155.3359)"><path
             d="M 0,0 C 10.426,14.813 3.986,45.254 -7.017,45.947 -17.937,46.636 -0.896,7.456 0,0"
             style="fill:#1a2e35;fill-opacity:1;fill-rule:nonzero;stroke:none"
             id="path790" /></g><g
           id="g792"
           transform="translate(392.9055,146.6719)"><path
             d="M 0,0 C -1.191,31.969 18.3,48.089 27.019,44.271 35.953,40.356 6.813,17.713 0,0"
             style="fill:#007cff;fill-opacity:1;fill-rule:nonzero;stroke:none"
             id="path794" /></g><g
           id="g796"
           transform="translate(390.2889,126.7373)"><path
             d="M 0,0 C 10.417,22.528 1.495,57.747 -15.08,53.937 -28.823,50.776 -2.462,9.485 0,0"
             style="fill:#007cff;fill-opacity:1;fill-rule:nonzero;stroke:none"
             id="path798" /></g><g
           id="g800"
           transform="translate(391.0059,120.0352)"><path
             d="M 0,0 C -1.146,21.603 -7.694,49.147 -21.153,46.599 -34.035,44.159 -4.018,18.858 0,0"
             style="fill:#1a2e35;fill-opacity:1;fill-rule:nonzero;stroke:none"
             id="path802" /></g><g
           id="g804"
           transform="translate(387.7024,109.4258)"><path
             d="M 0,0 C 3.282,31.872 30.579,49.665 30.302,37.597 30.005,24.669 9.17,16.258 0,0"
             style="fill:#007cff;fill-opacity:1;fill-rule:nonzero;stroke:none"
             id="path806" /></g><g
           id="g808"
           transform="translate(390.3518,116.1768)"><path
             d="M 0,0 C 3.825,11.401 -5.172,26.881 -14.619,23.575 -22.452,20.834 -2.458,4.164 0,0"
             style="fill:#007cff;fill-opacity:1;fill-rule:nonzero;stroke:none"
             id="path810" /></g><g
           id="g812"
           transform="translate(390.5962,120.4355)"><path
             d="M 0,0 C -4.117,24.446 16.94,66.507 35.947,57.466 54.423,48.677 9.001,28.083 0,0"
             style="fill:#1a2e35;fill-opacity:1;fill-rule:nonzero;stroke:none"
             id="path814" /></g><g
           id="g816"
           transform="translate(399.9828,83.5527)"><path
             d="m 0,0 h -18.182 c -3.259,0 -6.155,2.118 -7.105,5.235 -2.256,7.402 -3.625,15.071 -3.217,22.551 0.126,2.414 0.44,4.808 0.971,7.164 0.218,0.968 1.066,1.665 2.058,1.665 H 7.293 c 0.992,0 1.84,-0.697 2.058,-1.665 0.531,-2.356 0.845,-4.75 0.97,-7.164 C 10.73,20.306 9.36,12.637 7.105,5.235 6.155,2.118 3.259,0 0,0"
             style="fill:#007cff;fill-opacity:1;fill-rule:nonzero;stroke:none"
             id="path818" /></g><g
           id="g820"><g
             id="g822" /><g
             id="g834"><g
               clip-path="url(#clipPath826)"
               opacity="0.5"
               id="g832"><g
                 transform="translate(410.3042,111.3389)"
                 id="g830"><path
                   d="m 0,0 h -38.825 c 0.125,2.414 0.44,4.808 0.971,7.164 0.218,0.968 1.065,1.665 2.058,1.665 h 32.767 c 0.993,0 1.841,-0.697 2.059,-1.665 C -0.44,4.808 -0.125,2.414 0,0"
                   style="fill:#ffffff;fill-opacity:1;fill-rule:nonzero;stroke:none"
                   id="path828" /></g></g></g></g></g></g></g></svg>
